<svg xmlns="http://www.w3.org/2000/svg" viewBox="0 0 710.75 335.91"><defs><style>.cls-1{fill:#fff;}</style></defs><g id="Warstwa_2" data-name="Warstwa 2"><g id="Warstwa_1-2" data-name="Warstwa 1"><path class="cls-1" d="M352.43,0h0V27.11h0a50.07,50.07,0,1,1,0,100.13h0v27.11h0A77.18,77.18,0,1,0,352.43,0Z"/><path class="cls-1" d="M352.43,172.11a95,95,0,0,1-94.94-94.94h-27.1a122,122,0,1,0,244.09,0H447.37A95,95,0,0,1,352.43,172.11Z"/><path class="cls-1" d="M100.38,334.17H84.07V266.35h16.31Z"/><path class="cls-1" d="M128.09,321.59h28.46v12.58H111.74V266.35h16.35Z"/><path class="cls-1" d="M205.5,305.38H179.79v16.21h30.37v12.58H163.44V266.35h46.81V279H179.79v14.29H205.5Z"/><path class="cls-1" d="M251.79,316.14a6.73,6.73,0,0,0-2.53-5.59q-2.55-2-8.92-4.14a84.66,84.66,0,0,1-10.44-4.15q-13.17-6.47-13.18-17.79a15.93,15.93,0,0,1,3.29-9.94,21.24,21.24,0,0,1,9.29-6.71,36.13,36.13,0,0,1,13.51-2.4A31.64,31.64,0,0,1,255.92,268a20.81,20.81,0,0,1,9,7.43,19.39,19.39,0,0,1,3.21,11h-16.3a8.19,8.19,0,0,0-2.54-6.42,9.9,9.9,0,0,0-6.87-2.29,11.12,11.12,0,0,0-6.91,1.94,5.9,5.9,0,0,0-2.54,4.91q0,2.61,2.79,4.73t9.83,4.38a60.31,60.31,0,0,1,11.55,4.86q11,6.35,11,17.47,0,8.9-6.7,14T243,335.1a36.54,36.54,0,0,1-14.93-3,22.46,22.46,0,0,1-10.06-8.1,21.13,21.13,0,0,1-3.38-11.86h16.4q0,5.46,2.82,8T243,322.8a10.54,10.54,0,0,0,6.4-1.74A5.78,5.78,0,0,0,251.79,316.14Z"/><path class="cls-1" d="M404,305.38H378.29v16.21h30.37v12.58H362V266.35h46.8V279H378.29v14.29H404Z"/><path class="cls-1" d="M415.32,334.17V266.35h24.36q13.1,0,19.91,4.8t6.83,13.93a16.11,16.11,0,0,1-2.43,9,14.12,14.12,0,0,1-7.12,5.49,14.29,14.29,0,0,1,8.15,5.22,15.19,15.19,0,0,1,2.84,9.31q0,10-6.31,15t-18.7,5.1Zm16.35-39.55h8.52q5.35,0,7.64-2a7,7,0,0,0,2.28-5.65c0-2.86-.82-4.93-2.46-6.19s-4.31-1.89-8-1.89h-8Zm0,10.72v16.25h10.71q4.42,0,6.8-2a7.09,7.09,0,0,0,2.38-5.71q0-8.48-8.43-8.52Z"/><path class="cls-1" d="M494.27,334.17H478V266.35h16.3Z"/><path class="cls-1" d="M562.27,334.17H546L522,292v42.2H505.63V266.35H522l24,42.2v-42.2h16.3Z"/><path class="cls-1" d="M607.59,316.14a6.73,6.73,0,0,0-2.54-5.59q-2.53-2-8.92-4.14a85.08,85.08,0,0,1-10.43-4.15q-13.19-6.47-13.18-17.79a15.92,15.92,0,0,1,3.28-9.94,21.3,21.3,0,0,1,9.29-6.71,36.17,36.17,0,0,1,13.51-2.4A31.64,31.64,0,0,1,611.71,268a20.75,20.75,0,0,1,9,7.43,19.4,19.4,0,0,1,3.22,11H607.63a8.19,8.19,0,0,0-2.53-6.42,9.93,9.93,0,0,0-6.87-2.29,11.15,11.15,0,0,0-6.92,1.94,5.93,5.93,0,0,0-2.54,4.91q0,2.61,2.8,4.73t9.82,4.38a60.31,60.31,0,0,1,11.55,4.86q11,6.35,11,17.47,0,8.9-6.71,14t-18.4,5.08a36.57,36.57,0,0,1-14.93-3,22.52,22.52,0,0,1-10.06-8.1,21.12,21.12,0,0,1-3.37-11.86h16.39q0,5.46,2.82,8t9.15,2.58a10.58,10.58,0,0,0,6.41-1.74A5.8,5.8,0,0,0,607.59,316.14Z"/><path class="cls-1" d="M655.37,308.92l-6.7,7.36v17.89H632.32V266.35h16.35v29.9l5.68-8.61L669,266.35h20.22l-22.92,30,22.92,37.82H669.81Z"/><path class="cls-1" d="M710.75,334.17h-16.3V266.35h16.3Z"/><path class="cls-1" d="M318,264h-1.5v15.1H318a20.86,20.86,0,0,1,0,41.72h-1.5v15.1H318A36,36,0,0,0,318,264Z"/><path class="cls-1" d="M56.82,268.08v1.5a20.86,20.86,0,0,1-41.72,0v-1.5H0v1.5a36,36,0,1,0,71.92,0v-1.5Z"/><path class="cls-1" d="M14.8,298.63V269.58H.4v5.33A36,36,0,0,0,14.8,298.63Z"/><path class="cls-1" d="M.4,289.86v44.31H14.8V304.63A41.18,41.18,0,0,1,.4,289.86Z"/><rect class="cls-1" x="293.32" y="263.99" width="16.94" height="71.92"/><path class="cls-1" d="M57.42,304.45v30.14h14.4V289.35A41.3,41.3,0,0,1,57.42,304.45Z"/><path class="cls-1" d="M71.82,272.14V270H57.42v28.42A35.94,35.94,0,0,0,71.82,272.14Z"/></g></g></svg>